<svg class="main-svg" xmlns="http://www.w3.org/2000/svg" xmlns:xlink="http://www.w3.org/1999/xlink" width="1000" height="500" style="" viewBox="0 0 1000 500"><rect x="0" y="0" width="1000" height="500" style="fill: rgb(255, 255, 255); fill-opacity: 1;"/><defs id="defs-b28b93"><g class="clips"><clipPath id="clipb28b93xyplot" class="plotclip"><rect width="359.1" height="320"/></clipPath><clipPath id="clipb28b93x2y2plot" class="plotclip"><rect width="359.09999999999997" height="320"/></clipPath><clipPath class="axesclip" id="clipb28b93x"><rect x="80" y="0" width="359.1" height="500"/></clipPath><clipPath class="axesclip" id="clipb28b93y"><rect x="0" y="100" width="1000" height="320"/></clipPath><clipPath class="axesclip" id="clipb28b93xy"><rect x="80" y="100" width="359.1" height="320"/></clipPath><clipPath class="axesclip" id="clipb28b93y2"><rect x="0" y="100" width="1000" height="320"/></clipPath><clipPath class="axesclip" id="clipb28b93xy2"><rect x="80" y="100" width="359.1" height="320"/></clipPath><clipPath class="axesclip" id="clipb28b93x2"><rect x="518.9000000000001" y="0" width="359.09999999999997" height="500"/></clipPath><clipPath class="axesclip" id="clipb28b93x2y"><rect x="518.9000000000001" y="100" width="359.09999999999997" height="320"/></clipPath><clipPath class="axesclip" id="clipb28b93x2y2"><rect x="518.9000000000001" y="100" width="359.09999999999997" height="320"/></clipPath></g><g class="gradients"><linearGradient x1="0" y1="1" x2="0" y2="0" gradientUnits="objectBoundingBox" id="gb28b93-cbcoloraxis"><stop offset="0%" stop-color="rgb(63, 167, 245)" stop-opacity="1"/><stop offset="33.333333%" stop-color="rgb(61, 174, 79)" stop-opacity="1"/><stop offset="66.666667%" stop-color="rgb(248, 226, 98)" stop-opacity="1"/><stop offset="100%" stop-color="rgb(242, 138, 46)" stop-opacity="1"/></linearGradient></g><g class="patterns"/></defs><g class="bglayer"/><g class="layer-below"><g class="imagelayer"/><g class="shapelayer"/></g><g class="cartesianlayer"><g class="subplot xy"><g class="layer-subplot"><g class="shapelayer"/><g class="imagelayer"/></g><g class="minor-gridlayer"><g class="x"/><g class="y"/></g><g class="gridlayer"><g class="x"/><g class="y"/></g><g class="zerolinelayer"/><g class="layer-between"><g class="shapelayer"/><g class="imagelayer"/></g><path class="xlines-below"/><path class="ylines-below"/><g class="overlines-below"/><g class="xaxislayer-below"/><g class="yaxislayer-below"/><g class="overaxes-below"/><g class="overplot"><g class="xy" transform="translate(80,100)" clip-path="url(#clipb28b93xyplot)"><g class="scatterlayer mlayer"><g class="trace scatter traced3c974" style="stroke-miterlimit: 2; opacity: 1;"><g class="fills"/><g class="errorbars"/><g class="lines"><path class="js-line" d="M0,294.13L3.59,292.68L5.39,286.4L10.77,250.66L12.57,233.04L21.55,119.95L23.34,109.33L25.14,102.69L26.93,99.66L28.73,96.97L30.52,90.12L34.11,81.94L35.91,79.34L39.5,77.22L41.3,76.99L48.48,77.9L50.27,77.11L52.07,76.4L53.87,77.81L55.66,78.79L57.46,78.55L61.05,78.93L62.84,79.64L70.02,79.93L71.82,79.37L75.41,78.61L77.21,78.56L84.39,78.64L86.18,77.63L87.98,77.01L89.78,77.31L91.57,78.11L93.37,78.07L96.96,78.19L98.75,79.13L102.34,81.03L104.14,80.49L107.73,79.71L109.53,80.22L116.71,80.64L118.5,81.08L122.09,86.87L123.89,89.36L131.07,94.17L132.87,95.93L134.66,97.74L136.46,98.26L138.25,99.45L140.05,101.57L143.64,105.7L145.44,106.99L156.21,111.64L158,113.44L161.6,117.45L163.39,119.96L168.78,124.89L170.57,126.39L174.16,129.22L175.96,131.64L179.55,136.54L181.35,138.31L192.12,148.67L193.91,150.91L197.51,154.6L199.3,155.7L202.89,159L204.69,161.19L210.07,166.64L211.87,167.03L213.66,168.84L215.46,172.17L219.05,178.11L220.85,179.87L233.42,192.59L235.21,194.83L238.8,198.64L240.6,199.18L244.19,198.14L245.98,199.87L251.37,210.43L253.17,212.57L258.55,214.39L260.35,216.34L267.53,225.87L269.33,226.78L272.92,231.47L274.71,234.63L283.69,248.83L285.48,253.65L292.67,276.54L294.46,278.98L298.05,284.15L299.85,287.59L305.24,299.35L307.03,301.06L314.21,310L316.01,312.18L323.19,316.77L324.99,317.07L332.17,318.73L333.96,318.7L342.94,318.33L344.74,317.81L348.33,317.31L350.12,317.68L355.51,318.05L357.3,318.09L359.1,317.51" style="vector-effect: none; fill: none; stroke: rgb(178, 18, 111); stroke-opacity: 1; stroke-width: 2px; opacity: 1;"/></g><g class="points"/><g class="text"/></g><g class="trace scatter traceb82f4c" style="stroke-miterlimit: 2; opacity: 0.5;"><g class="fills"/><g class="errorbars"/><g class="lines"><path class="js-line" d="M52.07,331.07L52.07,76.4" style="vector-effect: none; fill: none; stroke: rgb(0, 0, 0); stroke-opacity: 1; stroke-dasharray: 9px, 9px; stroke-width: 2px; opacity: 1;"/></g><g class="points"><path class="point" transform="translate(52.07,331.07)" d="M3,0A3,3 0 1,1 0,-3A3,3 0 0,1 3,0Z" style="opacity: 1; stroke-width: 0px; fill: rgb(0, 0, 0); fill-opacity: 1;"/><path class="point" transform="translate(52.07,76.4)" d="M3,0A3,3 0 1,1 0,-3A3,3 0 0,1 3,0Z" style="opacity: 1; stroke-width: 0px; fill: rgb(0, 0, 0); fill-opacity: 1;"/></g><g class="text"/></g><g class="trace scatter traceed1050" style="stroke-miterlimit: 2; opacity: 1;"><g class="fills"/><g class="errorbars"/><g class="lines"/><g class="points"><path class="point" transform="translate(52.07,76.4)" d="M6,0A6,6 0 1,1 0,-6A6,6 0 0,1 6,0Z" style="opacity: 1; stroke-width: 0px; fill: rgb(0, 0, 0); fill-opacity: 1;"/></g><g class="text"><g class="textpoint" transform="translate(8.5,-27.099999999999998)"><text x="52.07" y="76.4" text-anchor="start" style="font-family: 'Open Sans', verdana, arial, sans-serif; font-size: 12px; fill: rgb(0, 0, 0); fill-opacity: 1; white-space: pre;"><tspan class="line" dy="0em" x="52.07" y="76.4">Peak:1480.8N</tspan><tspan class="line" dy="1.3em" x="52.07" y="76.4">Est. 1RM (kg): 108.2</tspan></text></g></g></g></g></g></g><g class="zerolinelayer-above"/><path class="xlines-above crisp" d="M78,421H439.1" style="fill: none; stroke-width: 2px; stroke: rgb(0, 0, 0); stroke-opacity: 1;"/><path class="ylines-above crisp" d="M79,100V420" style="fill: none; stroke-width: 2px; stroke: rgb(0, 0, 0); stroke-opacity: 1;"/><g class="overlines-above"/><g class="xaxislayer-above"><g class="xtick"><text text-anchor="middle" x="0" y="436.4" transform="translate(80,0)" style="font-family: 'Open Sans', verdana, arial, sans-serif; font-size: 12px; fill: rgb(42, 63, 95); fill-opacity: 1; white-space: pre;">0</text></g><g class="xtick"><text text-anchor="middle" x="0" y="436.4" style="font-family: 'Open Sans', verdana, arial, sans-serif; font-size: 12px; fill: rgb(42, 63, 95); fill-opacity: 1; white-space: pre;" transform="translate(169.78,0)">25</text></g><g class="xtick"><text text-anchor="middle" x="0" y="436.4" style="font-family: 'Open Sans', verdana, arial, sans-serif; font-size: 12px; fill: rgb(42, 63, 95); fill-opacity: 1; white-space: pre;" transform="translate(259.55,0)">50</text></g><g class="xtick"><text text-anchor="middle" x="0" y="436.4" style="font-family: 'Open Sans', verdana, arial, sans-serif; font-size: 12px; fill: rgb(42, 63, 95); fill-opacity: 1; white-space: pre;" transform="translate(349.33,0)">75</text></g><g class="xtick"><text text-anchor="middle" x="0" y="436.4" style="font-family: 'Open Sans', verdana, arial, sans-serif; font-size: 12px; fill: rgb(42, 63, 95); fill-opacity: 1; white-space: pre;" transform="translate(439.1,0)">100</text></g></g><g class="yaxislayer-above"><g class="ytick"><text text-anchor="end" x="75.6" y="4.199999999999999" transform="translate(0,345.08000000000004)" style="font-family: 'Open Sans', verdana, arial, sans-serif; font-size: 12px; fill: rgb(42, 63, 95); fill-opacity: 1; white-space: pre;">500</text></g><g class="ytick"><text text-anchor="end" x="75.6" y="4.199999999999999" style="font-family: 'Open Sans', verdana, arial, sans-serif; font-size: 12px; fill: rgb(42, 63, 95); fill-opacity: 1; white-space: pre;" transform="translate(0,259.09000000000003)">1000</text></g><g class="ytick"><text text-anchor="end" x="75.6" y="4.199999999999999" style="font-family: 'Open Sans', verdana, arial, sans-serif; font-size: 12px; fill: rgb(42, 63, 95); fill-opacity: 1; white-space: pre;" transform="translate(0,173.11)">1500</text></g></g><g class="overaxes-above"/></g><g class="subplot x2y2"><g class="layer-subplot"><g class="shapelayer"/><g class="imagelayer"/></g><g class="minor-gridlayer"><g class="x2"/><g class="y2"/></g><g class="gridlayer"><g class="x2"/><g class="y2"/></g><g class="zerolinelayer"/><g class="layer-between"><g class="shapelayer"/><g class="imagelayer"/></g><path class="xlines-below"/><path class="ylines-below"/><g class="overlines-below"/><g class="xaxislayer-below"/><g class="yaxislayer-below"/><g class="overaxes-below"/><g class="overplot"><g class="x2y2" transform="translate(518.9000000000001,100)" clip-path="url(#clipb28b93x2y2plot)"><g class="barlayer mlayer"><g class="trace bars" style="opacity: 1;"><g class="points"><g class="point"><path d="M179.55,288V32H128.08V288Z" style="vector-effect: none; opacity: 1; stroke-width: 0.5px; fill: rgb(61, 173, 102); fill-opacity: 1; stroke: rgb(255, 255, 255); stroke-opacity: 1;"/><text class="bartext bartext-outside" text-anchor="middle" data-notex="1" x="0" y="0" style="font-family: 'Open Sans', verdana, arial, sans-serif; font-size: 12px; fill: rgb(42, 63, 95); fill-opacity: 1; white-space: pre;" transform="translate(100.08664138793947,164.7999997138977)">+14.3%</text></g></g></g></g></g></g><g class="zerolinelayer-above"/><path class="xlines-above crisp" d="M0,0" style="fill: none;"/><path class="ylines-above crisp" d="M0,0" style="fill: none;"/><g class="overlines-above"/><g class="xaxislayer-above"/><g class="yaxislayer-above"><g class="y2tick"><text text-anchor="end" x="517.9000000000001" y="4.199999999999999" transform="translate(0,260)translate(0,-7.800000000000001)" style="font-family: 'Open Sans', verdana, arial, sans-serif; font-size: 12px; fill: rgb(42, 63, 95); fill-opacity: 1; white-space: pre;"><tspan class="line" dy="0em" x="517.9000000000001" y="4.199999999999999">latissimus</tspan><tspan class="line" dy="1.3em" x="517.9000000000001" y="4.199999999999999">dorsi</tspan></text></g></g><g class="overaxes-above"/></g></g><g class="polarlayer"/><g class="smithlayer"/><g class="ternarylayer"/><g class="geolayer"/><g class="funnelarealayer"/><g class="pielayer"/><g class="iciclelayer"/><g class="treemaplayer"/><g class="sunburstlayer"/><g class="glimages"/><defs id="topdefs-b28b93"><g class="clips"/></defs><g class="layer-above"><g class="imagelayer"/><g class="shapelayer"><g class="shape-group" data-index="0" clip-path="url(#clipb28b93x2)"><path data-index="0" fill-rule="evenodd" d="M698.45,420L698.45,100" style="opacity: 1; stroke: rgb(0, 0, 0); stroke-opacity: 1; fill: rgb(0, 0, 0); fill-opacity: 0; stroke-width: 2px;"/></g></g></g><g class="infolayer"><g class="cbcoloraxis colorbar" transform="translate(80,100)"><rect class="cbbg" x="814" y="8" width="93.8037109375" height="304" style="fill: rgb(0, 0, 0); fill-opacity: 0; stroke: rgb(68, 68, 68); stroke-opacity: 1; stroke-width: 0;"/><g class="cbfills" transform="translate(0,77)"><rect class="cbfill gradient_filled" style="fill: url('#gb28b93-cbcoloraxis');" x="824" y="0" width="30" height="225"/></g><g class="cblines" transform="translate(0,77)"/><g class="cbaxis crisp" transform="translate(0,-100)"><g class="ycbcoloraxistick"><text text-anchor="start" x="856.9" y="4.199999999999999" transform="translate(0,357)" style="font-family: 'Open Sans', verdana, arial, sans-serif; font-size: 12px; fill: rgb(42, 63, 95); fill-opacity: 1; white-space: pre;">Good</text></g><g class="ycbcoloraxistick"><text text-anchor="start" x="856.9" y="4.199999999999999" style="font-family: 'Open Sans', verdana, arial, sans-serif; font-size: 12px; fill: rgb(42, 63, 95); fill-opacity: 1; white-space: pre;" transform="translate(0,312)">Normal</text></g><g class="ycbcoloraxistick"><text text-anchor="start" x="856.9" y="4.199999999999999" style="font-family: 'Open Sans', verdana, arial, sans-serif; font-size: 12px; fill: rgb(42, 63, 95); fill-opacity: 1; white-space: pre;" transform="translate(0,267)">Fair</text></g><g class="ycbcoloraxistick"><text text-anchor="start" x="856.9" y="4.199999999999999" style="font-family: 'Open Sans', verdana, arial, sans-serif; font-size: 12px; fill: rgb(42, 63, 95); fill-opacity: 1; white-space: pre;" transform="translate(0,222.00000000000003)">Poor</text></g></g><g class="cbtitleunshift" transform="translate(-80,-100)"><g class="cbtitle" transform=""><text class="ycbcoloraxistitle" x="903.96" y="131.5" text-anchor="start" style="opacity: 1; font-family: 'Open Sans', verdana, arial, sans-serif; font-size: 14px; fill: rgb(42, 63, 95); fill-opacity: 1; white-space: pre;"><tspan class="line" dy="0em" x="903.96" y="131.5">Muscle</tspan><tspan class="line" dy="1.3em" x="903.96" y="131.5">Imbalance</tspan><tspan class="line" dy="2.6em" x="903.96" y="131.5">Levels</tspan></text></g></g><rect class="cboutline" x="824" y="77" width="30" height="225" style="stroke: rgb(68, 68, 68); stroke-opacity: 1; fill: none; stroke-width: 0;"/></g><g class="g-gtitle"/><g class="g-xtitle"><text class="xtitle" x="259.55" y="462.5994146347046" text-anchor="middle" style="opacity: 1; font-family: 'Open Sans', verdana, arial, sans-serif; font-size: 14px; fill: rgb(42, 63, 95); fill-opacity: 1; white-space: pre;">Concentric Phase (%)</text></g><g class="g-x2title"><text class="x2title" x="698.45" y="445.3" text-anchor="middle" style="opacity: 1; font-family: 'Open Sans', verdana, arial, sans-serif; font-size: 14px; fill: rgb(42, 63, 95); fill-opacity: 1; white-space: pre;"><tspan class="line" dy="0em" x="698.45" y="445.3">Left|Right</tspan><tspan class="line" dy="1.3em" x="698.45" y="445.3">(%)</tspan></text></g><g class="g-ytitle"><text class="ytitle" transform="rotate(-90,26.1751953125,260)" x="26.1751953125" y="260" text-anchor="middle" style="opacity: 1; font-family: 'Open Sans', verdana, arial, sans-serif; font-size: 14px; fill: rgb(42, 63, 95); fill-opacity: 1; white-space: pre;">Force (N)</text></g><g class="g-y2title"/><g class="annotation" data-index="0" style="opacity: 1;"><g class="annotation-text-g" transform="rotate(0,259.55,88.5)"><g class="cursor-pointer" transform="translate(225,77)"><rect class="bg" x="0.5" y="0.5" width="69" height="22" style="stroke-width: 1px; stroke: rgb(0, 0, 0); stroke-opacity: 0; fill: rgb(0, 0, 0); fill-opacity: 0;"/><text class="annotation-text" text-anchor="middle" x="34.875" y="18" style="font-family: 'Open Sans', verdana, arial, sans-serif; font-size: 16px; fill: rgb(42, 63, 95); fill-opacity: 1; white-space: pre;">Bilateral</text></g></g></g><g class="annotation" data-index="1" style="opacity: 1;"><g class="annotation-text-g" transform="rotate(0,698.45,88.5)"><g class="cursor-pointer" transform="translate(635,77)"><rect class="bg" x="0.5" y="0.5" width="125" height="22" style="stroke-width: 1px; stroke: rgb(0, 0, 0); stroke-opacity: 0; fill: rgb(0, 0, 0); fill-opacity: 0;"/><text class="annotation-text" text-anchor="middle" x="63.2001953125" y="18" style="font-family: 'Open Sans', verdana, arial, sans-serif; font-size: 16px; fill: rgb(42, 63, 95); fill-opacity: 1; white-space: pre;">Muscle Balance</text></g></g></g></g></svg>