<svg class="main-svg" xmlns="http://www.w3.org/2000/svg" xmlns:xlink="http://www.w3.org/1999/xlink" width="1000" height="500" style="" viewBox="0 0 1000 500"><rect x="0" y="0" width="1000" height="500" style="fill: rgb(255, 255, 255); fill-opacity: 1;"/><defs id="defs-565a26"><g class="clips"><clipPath id="clip565a26xyplot" class="plotclip"><rect width="359.1" height="320"/></clipPath><clipPath id="clip565a26x2y2plot" class="plotclip"><rect width="359.09999999999997" height="320"/></clipPath><clipPath class="axesclip" id="clip565a26x"><rect x="80" y="0" width="359.1" height="500"/></clipPath><clipPath class="axesclip" id="clip565a26y"><rect x="0" y="100" width="1000" height="320"/></clipPath><clipPath class="axesclip" id="clip565a26xy"><rect x="80" y="100" width="359.1" height="320"/></clipPath><clipPath class="axesclip" id="clip565a26y2"><rect x="0" y="100" width="1000" height="320"/></clipPath><clipPath class="axesclip" id="clip565a26xy2"><rect x="80" y="100" width="359.1" height="320"/></clipPath><clipPath class="axesclip" id="clip565a26x2"><rect x="518.9000000000001" y="0" width="359.09999999999997" height="500"/></clipPath><clipPath class="axesclip" id="clip565a26x2y"><rect x="518.9000000000001" y="100" width="359.09999999999997" height="320"/></clipPath><clipPath class="axesclip" id="clip565a26x2y2"><rect x="518.9000000000001" y="100" width="359.09999999999997" height="320"/></clipPath></g><g class="gradients"><linearGradient x1="0" y1="1" x2="0" y2="0" gradientUnits="objectBoundingBox" id="g565a26-cbcoloraxis"><stop offset="0%" stop-color="rgb(63, 167, 245)" stop-opacity="1"/><stop offset="33.333333%" stop-color="rgb(61, 174, 79)" stop-opacity="1"/><stop offset="66.666667%" stop-color="rgb(248, 226, 98)" stop-opacity="1"/><stop offset="100%" stop-color="rgb(242, 138, 46)" stop-opacity="1"/></linearGradient></g><g class="patterns"/></defs><g class="bglayer"/><g class="layer-below"><g class="imagelayer"/><g class="shapelayer"/></g><g class="cartesianlayer"><g class="subplot xy"><g class="layer-subplot"><g class="shapelayer"/><g class="imagelayer"/></g><g class="minor-gridlayer"><g class="x"/><g class="y"/></g><g class="gridlayer"><g class="x"/><g class="y"/></g><g class="zerolinelayer"/><g class="layer-between"><g class="shapelayer"/><g class="imagelayer"/></g><path class="xlines-below"/><path class="ylines-below"/><g class="overlines-below"/><g class="xaxislayer-below"/><g class="yaxislayer-below"/><g class="overaxes-below"/><g class="overplot"><g class="xy" transform="translate(80,100)" clip-path="url(#clip565a26xyplot)"><g class="scatterlayer mlayer"><g class="trace scatter trace410066" style="stroke-miterlimit: 2; opacity: 1;"><g class="fills"/><g class="errorbars"/><g class="lines"><path class="js-line" d="M0,306.78L3.59,285.94L5.39,273.21L12.57,224.24L14.36,214.22L17.96,201.45L19.75,198.1L25.14,188.91L26.93,184.57L30.52,178.72L32.32,177.19L34.11,174.86L35.91,171.06L37.71,169.29L39.5,169.72L41.3,171.36L43.09,171.38L44.89,168.39L46.68,167.29L52.07,170L53.87,169.72L55.66,168.39L57.46,166.07L62.84,158.64L64.64,156.47L73.62,143.01L75.41,141.67L80.8,136.51L82.59,134.54L86.18,131.11L87.98,130.68L89.78,129.48L91.57,127.2L100.55,111.4L102.34,110.65L104.14,110.08L105.93,108.66L109.53,105.01L111.32,102.36L114.91,97.7L116.71,96.5L120.3,94.62L122.09,93.25L125.69,89.1L127.48,85.75L131.07,81.14L132.87,81.05L136.46,80.84L138.25,80.32L141.84,78.3L143.64,77.28L147.23,77.68L149.03,78.13L152.62,77.3L154.41,77.69L158,77.84L159.8,78.45L163.39,78.06L165.19,77.49L170.57,75.72L172.37,77.09L175.96,79.43L177.75,78.13L179.55,76.81L181.35,76.81L184.94,79.9L186.73,80.61L192.12,78.97L193.91,77.28L195.71,77.47L197.51,79.72L199.3,79.76L201.1,78.62L202.89,79.04L204.69,77.12L206.48,76L208.28,77.46L211.87,81.42L213.66,81.68L219.05,80.27L220.85,82.63L222.64,85.81L224.44,86.97L229.82,91.53L231.62,91.56L238.8,99.91L240.6,100.29L247.78,104.04L249.57,105.44L253.17,110.16L254.96,113.95L262.14,129.91L263.94,132.85L265.73,137.54L267.53,145.16L276.51,191.13L278.3,200.75L285.48,233.55L287.28,239.84L305.24,297.09L307.03,299.96L316.01,313.64L317.8,314.77L321.39,314.75L323.19,315.22L326.78,317.66L328.58,317.36L332.17,317.6L333.96,318.09L342.94,318.97L344.74,318.74L348.33,317.47L350.12,316.59L359.1,314.25" style="vector-effect: none; fill: none; stroke: rgb(178, 18, 111); stroke-opacity: 1; stroke-width: 2px; opacity: 1;"/></g><g class="points"/><g class="text"/></g><g class="trace scatter trace963ab2" style="stroke-miterlimit: 2; opacity: 0.5;"><g class="fills"/><g class="errorbars"/><g class="lines"><path class="js-line" d="M170.57,328.14L170.57,75.72" style="vector-effect: none; fill: none; stroke: rgb(0, 0, 0); stroke-opacity: 1; stroke-dasharray: 9px, 9px; stroke-width: 2px; opacity: 1;"/></g><g class="points"><path class="point" transform="translate(170.57,328.14)" d="M3,0A3,3 0 1,1 0,-3A3,3 0 0,1 3,0Z" style="opacity: 1; stroke-width: 0px; fill: rgb(0, 0, 0); fill-opacity: 1;"/><path class="point" transform="translate(170.57,75.72)" d="M3,0A3,3 0 1,1 0,-3A3,3 0 0,1 3,0Z" style="opacity: 1; stroke-width: 0px; fill: rgb(0, 0, 0); fill-opacity: 1;"/></g><g class="text"/></g><g class="trace scatter trace34a161" style="stroke-miterlimit: 2; opacity: 1;"><g class="fills"/><g class="errorbars"/><g class="lines"/><g class="points"><path class="point" transform="translate(170.57,75.72)" d="M6,0A6,6 0 1,1 0,-6A6,6 0 0,1 6,0Z" style="opacity: 1; stroke-width: 0px; fill: rgb(0, 0, 0); fill-opacity: 1;"/></g><g class="text"><g class="textpoint" transform="translate(0,-27.099999999999998)"><text x="170.57" y="75.72" text-anchor="middle" style="font-family: 'Open Sans', verdana, arial, sans-serif; font-size: 12px; fill: rgb(0, 0, 0); fill-opacity: 1; white-space: pre;"><tspan class="line" dy="0em" x="170.57" y="75.72">Peak:1497.8N</tspan><tspan class="line" dy="1.3em" x="170.57" y="75.72">Est. 1RM (kg): 150.1</tspan></text></g></g></g></g></g></g><g class="zerolinelayer-above"/><path class="xlines-above crisp" d="M78,421H439.1" style="fill: none; stroke-width: 2px; stroke: rgb(0, 0, 0); stroke-opacity: 1;"/><path class="ylines-above crisp" d="M79,100V420" style="fill: none; stroke-width: 2px; stroke: rgb(0, 0, 0); stroke-opacity: 1;"/><g class="overlines-above"/><g class="xaxislayer-above"><g class="xtick"><text text-anchor="middle" x="0" y="436.4" transform="translate(80,0)" style="font-family: 'Open Sans', verdana, arial, sans-serif; font-size: 12px; fill: rgb(42, 63, 95); fill-opacity: 1; white-space: pre;">0</text></g><g class="xtick"><text text-anchor="middle" x="0" y="436.4" style="font-family: 'Open Sans', verdana, arial, sans-serif; font-size: 12px; fill: rgb(42, 63, 95); fill-opacity: 1; white-space: pre;" transform="translate(169.78,0)">25</text></g><g class="xtick"><text text-anchor="middle" x="0" y="436.4" style="font-family: 'Open Sans', verdana, arial, sans-serif; font-size: 12px; fill: rgb(42, 63, 95); fill-opacity: 1; white-space: pre;" transform="translate(259.55,0)">50</text></g><g class="xtick"><text text-anchor="middle" x="0" y="436.4" style="font-family: 'Open Sans', verdana, arial, sans-serif; font-size: 12px; fill: rgb(42, 63, 95); fill-opacity: 1; white-space: pre;" transform="translate(349.33,0)">75</text></g><g class="xtick"><text text-anchor="middle" x="0" y="436.4" style="font-family: 'Open Sans', verdana, arial, sans-serif; font-size: 12px; fill: rgb(42, 63, 95); fill-opacity: 1; white-space: pre;" transform="translate(439.1,0)">100</text></g></g><g class="yaxislayer-above"><g class="ytick"><text text-anchor="end" x="75.6" y="4.199999999999999" transform="translate(0,343.88)" style="font-family: 'Open Sans', verdana, arial, sans-serif; font-size: 12px; fill: rgb(42, 63, 95); fill-opacity: 1; white-space: pre;">500</text></g><g class="ytick"><text text-anchor="end" x="75.6" y="4.199999999999999" style="font-family: 'Open Sans', verdana, arial, sans-serif; font-size: 12px; fill: rgb(42, 63, 95); fill-opacity: 1; white-space: pre;" transform="translate(0,259.61)">1000</text></g><g class="ytick"><text text-anchor="end" x="75.6" y="4.199999999999999" style="font-family: 'Open Sans', verdana, arial, sans-serif; font-size: 12px; fill: rgb(42, 63, 95); fill-opacity: 1; white-space: pre;" transform="translate(0,175.35)">1500</text></g></g><g class="overaxes-above"/></g><g class="subplot x2y2"><g class="layer-subplot"><g class="shapelayer"/><g class="imagelayer"/></g><g class="minor-gridlayer"><g class="x2"/><g class="y2"/></g><g class="gridlayer"><g class="x2"/><g class="y2"/></g><g class="zerolinelayer"/><g class="layer-between"><g class="shapelayer"/><g class="imagelayer"/></g><path class="xlines-below"/><path class="ylines-below"/><g class="overlines-below"/><g class="xaxislayer-below"/><g class="yaxislayer-below"/><g class="overaxes-below"/><g class="overplot"><g class="x2y2" transform="translate(518.9000000000001,100)" clip-path="url(#clip565a26x2y2plot)"><g class="barlayer mlayer"><g class="trace bars" style="opacity: 1;"><g class="points"><g class="point"><path d="M179.55,288V32H219.41V288Z" style="vector-effect: none; opacity: 1; stroke-width: 0.5px; fill: rgb(62, 172, 134); fill-opacity: 1; stroke: rgb(255, 255, 255); stroke-opacity: 1;"/><text class="bartext bartext-outside" text-anchor="middle" data-notex="1" x="0" y="0" style="font-family: 'Open Sans', verdana, arial, sans-serif; font-size: 12px; fill: rgb(42, 63, 95); fill-opacity: 1; white-space: pre;" transform="translate(247.404140625,164.7999997138977)">+11.1%</text></g></g></g></g></g></g><g class="zerolinelayer-above"/><path class="xlines-above crisp" d="M0,0" style="fill: none;"/><path class="ylines-above crisp" d="M0,0" style="fill: none;"/><g class="overlines-above"/><g class="xaxislayer-above"/><g class="yaxislayer-above"><g class="y2tick"><text text-anchor="end" x="517.9000000000001" y="4.199999999999999" transform="translate(0,260)translate(0,-7.800000000000001)" style="font-family: 'Open Sans', verdana, arial, sans-serif; font-size: 12px; fill: rgb(42, 63, 95); fill-opacity: 1; white-space: pre;"><tspan class="line" dy="0em" x="517.9000000000001" y="4.199999999999999">pectoralis</tspan><tspan class="line" dy="1.3em" x="517.9000000000001" y="4.199999999999999">major</tspan></text></g></g><g class="overaxes-above"/></g></g><g class="polarlayer"/><g class="smithlayer"/><g class="ternarylayer"/><g class="geolayer"/><g class="funnelarealayer"/><g class="pielayer"/><g class="iciclelayer"/><g class="treemaplayer"/><g class="sunburstlayer"/><g class="glimages"/><defs id="topdefs-565a26"><g class="clips"/></defs><g class="layer-above"><g class="imagelayer"/><g class="shapelayer"><g class="shape-group" data-index="0" clip-path="url(#clip565a26x2)"><path data-index="0" fill-rule="evenodd" d="M698.45,420L698.45,100" style="opacity: 1; stroke: rgb(0, 0, 0); stroke-opacity: 1; fill: rgb(0, 0, 0); fill-opacity: 0; stroke-width: 2px;"/></g></g></g><g class="infolayer"><g class="cbcoloraxis colorbar" transform="translate(80,100)"><rect class="cbbg" x="814" y="8" width="93.8037109375" height="304" style="fill: rgb(0, 0, 0); fill-opacity: 0; stroke: rgb(68, 68, 68); stroke-opacity: 1; stroke-width: 0;"/><g class="cbfills" transform="translate(0,77)"><rect class="cbfill gradient_filled" style="fill: url('#g565a26-cbcoloraxis');" x="824" y="0" width="30" height="225"/></g><g class="cblines" transform="translate(0,77)"/><g class="cbaxis crisp" transform="translate(0,-100)"><g class="ycbcoloraxistick"><text text-anchor="start" x="856.9" y="4.199999999999999" transform="translate(0,357)" style="font-family: 'Open Sans', verdana, arial, sans-serif; font-size: 12px; fill: rgb(42, 63, 95); fill-opacity: 1; white-space: pre;">Good</text></g><g class="ycbcoloraxistick"><text text-anchor="start" x="856.9" y="4.199999999999999" style="font-family: 'Open Sans', verdana, arial, sans-serif; font-size: 12px; fill: rgb(42, 63, 95); fill-opacity: 1; white-space: pre;" transform="translate(0,312)">Normal</text></g><g class="ycbcoloraxistick"><text text-anchor="start" x="856.9" y="4.199999999999999" style="font-family: 'Open Sans', verdana, arial, sans-serif; font-size: 12px; fill: rgb(42, 63, 95); fill-opacity: 1; white-space: pre;" transform="translate(0,267)">Fair</text></g><g class="ycbcoloraxistick"><text text-anchor="start" x="856.9" y="4.199999999999999" style="font-family: 'Open Sans', verdana, arial, sans-serif; font-size: 12px; fill: rgb(42, 63, 95); fill-opacity: 1; white-space: pre;" transform="translate(0,222.00000000000003)">Poor</text></g></g><g class="cbtitleunshift" transform="translate(-80,-100)"><g class="cbtitle" transform=""><text class="ycbcoloraxistitle" x="903.96" y="131.5" text-anchor="start" style="opacity: 1; font-family: 'Open Sans', verdana, arial, sans-serif; font-size: 14px; fill: rgb(42, 63, 95); fill-opacity: 1; white-space: pre;"><tspan class="line" dy="0em" x="903.96" y="131.5">Muscle</tspan><tspan class="line" dy="1.3em" x="903.96" y="131.5">Imbalance</tspan><tspan class="line" dy="2.6em" x="903.96" y="131.5">Levels</tspan></text></g></g><rect class="cboutline" x="824" y="77" width="30" height="225" style="stroke: rgb(68, 68, 68); stroke-opacity: 1; fill: none; stroke-width: 0;"/></g><g class="g-gtitle"/><g class="g-xtitle"><text class="xtitle" x="259.55" y="462.5994146347046" text-anchor="middle" style="opacity: 1; font-family: 'Open Sans', verdana, arial, sans-serif; font-size: 14px; fill: rgb(42, 63, 95); fill-opacity: 1; white-space: pre;">Concentric Phase (%)</text></g><g class="g-x2title"><text class="x2title" x="698.45" y="445.3" text-anchor="middle" style="opacity: 1; font-family: 'Open Sans', verdana, arial, sans-serif; font-size: 14px; fill: rgb(42, 63, 95); fill-opacity: 1; white-space: pre;"><tspan class="line" dy="0em" x="698.45" y="445.3">Left|Right</tspan><tspan class="line" dy="1.3em" x="698.45" y="445.3">(%)</tspan></text></g><g class="g-ytitle"><text class="ytitle" transform="rotate(-90,26.1751953125,260)" x="26.1751953125" y="260" text-anchor="middle" style="opacity: 1; font-family: 'Open Sans', verdana, arial, sans-serif; font-size: 14px; fill: rgb(42, 63, 95); fill-opacity: 1; white-space: pre;">Force (N)</text></g><g class="g-y2title"/><g class="annotation" data-index="0" style="opacity: 1;"><g class="annotation-text-g" transform="rotate(0,259.55,88.5)"><g class="cursor-pointer" transform="translate(225,77)"><rect class="bg" x="0.5" y="0.5" width="69" height="22" style="stroke-width: 1px; stroke: rgb(0, 0, 0); stroke-opacity: 0; fill: rgb(0, 0, 0); fill-opacity: 0;"/><text class="annotation-text" text-anchor="middle" x="34.875" y="18" style="font-family: 'Open Sans', verdana, arial, sans-serif; font-size: 16px; fill: rgb(42, 63, 95); fill-opacity: 1; white-space: pre;">Bilateral</text></g></g></g><g class="annotation" data-index="1" style="opacity: 1;"><g class="annotation-text-g" transform="rotate(0,698.45,88.5)"><g class="cursor-pointer" transform="translate(635,77)"><rect class="bg" x="0.5" y="0.5" width="125" height="22" style="stroke-width: 1px; stroke: rgb(0, 0, 0); stroke-opacity: 0; fill: rgb(0, 0, 0); fill-opacity: 0;"/><text class="annotation-text" text-anchor="middle" x="63.2001953125" y="18" style="font-family: 'Open Sans', verdana, arial, sans-serif; font-size: 16px; fill: rgb(42, 63, 95); fill-opacity: 1; white-space: pre;">Muscle Balance</text></g></g></g></g></svg>