<svg class="main-svg" xmlns="http://www.w3.org/2000/svg" xmlns:xlink="http://www.w3.org/1999/xlink" width="1500" height="500" style="" viewBox="0 0 1500 500"><rect x="0" y="0" width="1500" height="500" style="fill: rgb(255, 255, 255); fill-opacity: 1;"/><defs id="defs-7796bc"><g class="clips"><clipPath id="clip7796bcxyplot" class="plotclip"><rect width="343.73333333333335" height="320"/></clipPath><clipPath id="clip7796bcx2y2plot" class="plotclip"><rect width="343.73333333333323" height="320"/></clipPath><clipPath id="clip7796bcx3y3plot" class="plotclip"><rect width="343.73333333333323" height="320"/></clipPath><clipPath class="axesclip" id="clip7796bcx"><rect x="80" y="0" width="343.73333333333335" height="500"/></clipPath><clipPath class="axesclip" id="clip7796bcy"><rect x="0" y="100" width="1500" height="320"/></clipPath><clipPath class="axesclip" id="clip7796bcxy"><rect x="80" y="100" width="343.73333333333335" height="320"/></clipPath><clipPath class="axesclip" id="clip7796bcy2"><rect x="0" y="100" width="1500" height="320"/></clipPath><clipPath class="axesclip" id="clip7796bcxy2"><rect x="80" y="100" width="343.73333333333335" height="320"/></clipPath><clipPath class="axesclip" id="clip7796bcy3"><rect x="0" y="100" width="1500" height="320"/></clipPath><clipPath class="axesclip" id="clip7796bcxy3"><rect x="80" y="100" width="343.73333333333335" height="320"/></clipPath><clipPath class="axesclip" id="clip7796bcx2"><rect x="552.6333333333334" y="0" width="343.73333333333323" height="500"/></clipPath><clipPath class="axesclip" id="clip7796bcx2y"><rect x="552.6333333333334" y="100" width="343.73333333333323" height="320"/></clipPath><clipPath class="axesclip" id="clip7796bcx2y2"><rect x="552.6333333333334" y="100" width="343.73333333333323" height="320"/></clipPath><clipPath class="axesclip" id="clip7796bcx2y3"><rect x="552.6333333333334" y="100" width="343.73333333333323" height="320"/></clipPath><clipPath class="axesclip" id="clip7796bcx3"><rect x="1025.2666666666669" y="0" width="343.73333333333323" height="500"/></clipPath><clipPath class="axesclip" id="clip7796bcx3y"><rect x="1025.2666666666669" y="100" width="343.73333333333323" height="320"/></clipPath><clipPath class="axesclip" id="clip7796bcx3y2"><rect x="1025.2666666666669" y="100" width="343.73333333333323" height="320"/></clipPath><clipPath class="axesclip" id="clip7796bcx3y3"><rect x="1025.2666666666669" y="100" width="343.73333333333323" height="320"/></clipPath></g><g class="gradients"><linearGradient x1="0" y1="1" x2="0" y2="0" gradientUnits="objectBoundingBox" id="g7796bc-cbcoloraxis"><stop offset="0%" stop-color="rgb(63, 167, 245)" stop-opacity="1"/><stop offset="33.333333%" stop-color="rgb(61, 174, 79)" stop-opacity="1"/><stop offset="66.666667%" stop-color="rgb(248, 226, 98)" stop-opacity="1"/><stop offset="100%" stop-color="rgb(242, 138, 46)" stop-opacity="1"/></linearGradient></g><g class="patterns"/></defs><g class="bglayer"/><g class="layer-below"><g class="imagelayer"/><g class="shapelayer"/></g><g class="cartesianlayer"><g class="subplot xy"><g class="layer-subplot"><g class="shapelayer"/><g class="imagelayer"/></g><g class="minor-gridlayer"><g class="x"/><g class="y"/></g><g class="gridlayer"><g class="x"/><g class="y"/></g><g class="zerolinelayer"/><g class="layer-between"><g class="shapelayer"/><g class="imagelayer"/></g><path class="xlines-below"/><path class="ylines-below"/><g class="overlines-below"/><g class="xaxislayer-below"/><g class="yaxislayer-below"/><g class="overaxes-below"/><g class="overplot"><g class="xy" transform="translate(80,100)" clip-path="url(#clip7796bcxyplot)"><g class="scatterlayer mlayer"><g class="trace scatter trace2b4ae3" style="stroke-miterlimit: 2; opacity: 1;"><g class="fills"/><g class="errorbars"/><g class="lines"><path class="js-line" d="M0,318.64L1.72,316.08L3.44,310.24L6.87,290.63L8.59,278.27L17.19,209.34L18.91,202.16L20.62,200.03L22.34,191.94L24.06,185.92L25.78,187.84L27.5,196.34L29.22,210.09L34.37,219.57L36.09,224.51L37.81,219.11L39.53,211.2L42.97,197.26L44.69,192.79L49.84,185.15L51.56,186.29L55,193.6L56.72,193.31L58.43,193.13L60.15,194.11L61.87,192.65L63.59,189.21L70.47,172.26L72.18,170.03L75.62,167.35L77.34,166.46L82.5,163.12L84.21,160.93L91.09,150.95L92.81,146.9L99.68,131.87L101.4,129.02L106.56,124.02L108.28,122.96L115.15,119.01L116.87,117.1L120.31,113.52L122.03,112.62L127.18,109.91L128.9,109L132.34,104.21L134.06,103.01L137.49,101.41L139.21,101.74L142.65,102.43L144.37,101.52L146.09,99.84L147.81,96.93L152.96,90.34L154.68,87.35L161.55,78.4L163.27,76.98L164.99,76.68L166.71,77.4L177.02,84.26L178.74,83.77L182.18,81.38L183.9,81.15L187.33,81.6L189.05,82.78L192.49,86.59L194.21,89.49L199.37,99.08L201.08,99.98L204.52,97.48L206.24,97.96L207.96,101.36L209.68,107.44L211.4,110.94L213.11,110.1L214.83,111.21L216.55,114.64L221.71,129.58L223.43,127.2L225.15,127.09L226.86,130.54L230.3,147.5L232.02,156.82L235.46,156.1L237.18,158.87L238.89,165.44L240.61,175.8L242.33,188.71L244.05,192.92L250.93,204.1L252.64,209.14L257.8,231.78L259.52,232.83L261.24,235.58L262.96,240.23L266.39,253.69L268.11,256.76L269.83,258.89L271.55,259.58L274.99,263.11L276.71,265.91L288.74,297.6L290.45,299.13L293.89,303.35L295.61,305.74L299.05,309.09L300.77,309.77L314.52,314.94L316.23,315.32L326.55,316.74L328.27,316.96L335.14,317.14L336.86,317L340.3,316.34L342.01,315.57L343.73,314.6" style="vector-effect: none; fill: none; stroke: rgb(22, 100, 168); stroke-opacity: 1; stroke-width: 2px; opacity: 1;"/></g><g class="points"/><g class="text"/></g><g class="trace scatter traceb83bde" style="stroke-miterlimit: 2; opacity: 0.5;"><g class="fills"/><g class="errorbars"/><g class="lines"><path class="js-line" d="M164.99,332.27L164.99,76.68" style="vector-effect: none; fill: none; stroke: rgb(0, 0, 0); stroke-opacity: 1; stroke-dasharray: 9px, 9px; stroke-width: 2px; opacity: 1;"/></g><g class="points"><path class="point" transform="translate(164.99,332.27)" d="M3,0A3,3 0 1,1 0,-3A3,3 0 0,1 3,0Z" style="opacity: 1; stroke-width: 0px; fill: rgb(0, 0, 0); fill-opacity: 1;"/><path class="point" transform="translate(164.99,76.68)" d="M3,0A3,3 0 1,1 0,-3A3,3 0 0,1 3,0Z" style="opacity: 1; stroke-width: 0px; fill: rgb(0, 0, 0); fill-opacity: 1;"/></g><g class="text"/></g><g class="trace scatter trace878b25" style="stroke-miterlimit: 2; opacity: 1;"><g class="fills"/><g class="errorbars"/><g class="lines"/><g class="points"><path class="point" transform="translate(164.99,76.68)" d="M6,0A6,6 0 1,1 0,-6A6,6 0 0,1 6,0Z" style="opacity: 1; stroke-width: 0px; fill: rgb(0, 0, 0); fill-opacity: 1;"/></g><g class="text"><g class="textpoint" transform="translate(0,-27.099999999999998)"><text x="164.99" y="76.68" text-anchor="middle" style="font-family: 'Open Sans', verdana, arial, sans-serif; font-size: 12px; fill: rgb(0, 0, 0); fill-opacity: 1; white-space: pre;"><tspan class="line" dy="0em" x="164.99" y="76.68">Peak:2502.3N</tspan><tspan class="line" dy="1.3em" x="164.99" y="76.68">Est. 1RM (kg): 176.9</tspan></text></g></g></g></g></g></g><g class="zerolinelayer-above"/><path class="xlines-above crisp" d="M78,421H423.73333333333335" style="fill: none; stroke-width: 2px; stroke: rgb(0, 0, 0); stroke-opacity: 1;"/><path class="ylines-above crisp" d="M79,100V420" style="fill: none; stroke-width: 2px; stroke: rgb(0, 0, 0); stroke-opacity: 1;"/><g class="overlines-above"/><g class="xaxislayer-above"><g class="xtick"><text text-anchor="middle" x="0" y="436.4" transform="translate(80,0)" style="font-family: 'Open Sans', verdana, arial, sans-serif; font-size: 12px; fill: rgb(42, 63, 95); fill-opacity: 1; white-space: pre;">0</text></g><g class="xtick"><text text-anchor="middle" x="0" y="436.4" style="font-family: 'Open Sans', verdana, arial, sans-serif; font-size: 12px; fill: rgb(42, 63, 95); fill-opacity: 1; white-space: pre;" transform="translate(165.93,0)">25</text></g><g class="xtick"><text text-anchor="middle" x="0" y="436.4" style="font-family: 'Open Sans', verdana, arial, sans-serif; font-size: 12px; fill: rgb(42, 63, 95); fill-opacity: 1; white-space: pre;" transform="translate(251.87,0)">50</text></g><g class="xtick"><text text-anchor="middle" x="0" y="436.4" style="font-family: 'Open Sans', verdana, arial, sans-serif; font-size: 12px; fill: rgb(42, 63, 95); fill-opacity: 1; white-space: pre;" transform="translate(337.8,0)">75</text></g><g class="xtick"><text text-anchor="middle" x="0" y="436.4" style="font-family: 'Open Sans', verdana, arial, sans-serif; font-size: 12px; fill: rgb(42, 63, 95); fill-opacity: 1; white-space: pre;" transform="translate(423.73,0)">100</text></g></g><g class="yaxislayer-above"><g class="ytick"><text text-anchor="end" x="75.6" y="4.199999999999999" transform="translate(0,381.2)" style="font-family: 'Open Sans', verdana, arial, sans-serif; font-size: 12px; fill: rgb(42, 63, 95); fill-opacity: 1; white-space: pre;">500</text></g><g class="ytick"><text text-anchor="end" x="75.6" y="4.199999999999999" style="font-family: 'Open Sans', verdana, arial, sans-serif; font-size: 12px; fill: rgb(42, 63, 95); fill-opacity: 1; white-space: pre;" transform="translate(0,330.13)">1000</text></g><g class="ytick"><text text-anchor="end" x="75.6" y="4.199999999999999" style="font-family: 'Open Sans', verdana, arial, sans-serif; font-size: 12px; fill: rgb(42, 63, 95); fill-opacity: 1; white-space: pre;" transform="translate(0,279.06)">1500</text></g><g class="ytick"><text text-anchor="end" x="75.6" y="4.199999999999999" style="font-family: 'Open Sans', verdana, arial, sans-serif; font-size: 12px; fill: rgb(42, 63, 95); fill-opacity: 1; white-space: pre;" transform="translate(0,227.99)">2000</text></g><g class="ytick"><text text-anchor="end" x="75.6" y="4.199999999999999" style="font-family: 'Open Sans', verdana, arial, sans-serif; font-size: 12px; fill: rgb(42, 63, 95); fill-opacity: 1; white-space: pre;" transform="translate(0,176.92000000000002)">2500</text></g><g class="ytick"><text text-anchor="end" x="75.6" y="4.199999999999999" style="font-family: 'Open Sans', verdana, arial, sans-serif; font-size: 12px; fill: rgb(42, 63, 95); fill-opacity: 1; white-space: pre;" transform="translate(0,125.85)">3000</text></g></g><g class="overaxes-above"/></g><g class="subplot x2y2"><g class="layer-subplot"><g class="shapelayer"/><g class="imagelayer"/></g><g class="minor-gridlayer"><g class="x2"/><g class="y2"/></g><g class="gridlayer"><g class="x2"/><g class="y2"/></g><g class="zerolinelayer"/><g class="layer-between"><g class="shapelayer"/><g class="imagelayer"/></g><path class="xlines-below"/><path class="ylines-below"/><g class="overlines-below"/><g class="xaxislayer-below"/><g class="yaxislayer-below"/><g class="overaxes-below"/><g class="overplot"><g class="x2y2" transform="translate(552.6333333333334,100)" clip-path="url(#clip7796bcx2y2plot)"><g class="scatterlayer mlayer"><g class="trace scatter trace0a10e1" style="stroke-miterlimit: 2; opacity: 1;"><g class="fills"/><g class="errorbars"/><g class="lines"><path class="js-line" d="M0,318.48L1.72,315.74L3.44,309.7L6.87,289.7L8.59,276.72L13.75,233.35L15.47,213.38L17.19,199.63L18.91,192.73L20.62,194.76L22.34,205.38L27.5,246.42L29.22,249.43L30.94,248.59L32.65,239.29L36.09,220.99L37.81,216.12L42.97,200.05L44.69,201.1L51.56,221.55L53.28,223.39L55,219.75L56.72,213.15L58.43,208.36L60.15,206.14L65.31,194.06L67.03,192.65L68.75,192.51L70.47,193.54L73.9,196.85L75.62,197.36L77.34,196.57L79.06,194.41L89.37,175.14L91.09,172.8L96.25,168.25L97.96,165.84L109.99,145.51L111.71,143.54L116.87,138.14L118.59,133.82L125.46,122.74L127.18,121.22L130.62,119.88L132.34,119.5L134.06,118.43L135.77,116.34L147.81,99.45L149.52,98.42L152.96,98.61L154.68,99.68L156.4,100.93L158.12,100.8L159.84,98.74L161.55,98.27L163.27,98.8L164.99,98.51L173.59,83.2L175.3,82.08L177.02,83.99L178.74,87.46L183.9,98.45L185.62,99.16L187.33,97.06L189.05,93.3L190.77,90.08L192.49,88.92L194.21,89.74L195.93,91.84L199.37,99.56L201.08,106.23L202.8,112.34L204.52,114.11L209.68,120.45L211.4,118.49L214.83,108.63L216.55,107.93L218.27,110.43L219.99,114.59L225.15,129.61L226.86,136.62L228.58,136.64L230.3,135.66L232.02,134.79L233.74,135.93L240.61,146.57L242.33,147.46L245.77,148.69L247.49,151.88L250.93,164.58L252.64,172.02L259.52,193.76L261.24,198.37L271.55,231.15L273.27,238.35L276.71,255.47L278.42,262.16L283.58,279.95L285.3,283.76L288.74,282.42L290.45,282.46L292.17,283.71L293.89,286.25L297.33,294.12L299.05,298.74L304.2,309.47L305.92,311.56L309.36,313.59L311.08,313.41L333.42,310.39L335.14,310.37L343.73,310.05" style="vector-effect: none; fill: none; stroke: rgb(185, 55, 42); stroke-opacity: 1; stroke-width: 2px; opacity: 1;"/></g><g class="points"/><g class="text"/></g><g class="trace scatter trace4e436b" style="stroke-miterlimit: 2; opacity: 0.5;"><g class="fills"/><g class="errorbars"/><g class="lines"><path class="js-line" d="M175.3,332.27L175.3,82.08" style="vector-effect: none; fill: none; stroke: rgb(0, 0, 0); stroke-opacity: 1; stroke-dasharray: 9px, 9px; stroke-width: 2px; opacity: 1;"/></g><g class="points"><path class="point" transform="translate(175.3,332.27)" d="M3,0A3,3 0 1,1 0,-3A3,3 0 0,1 3,0Z" style="opacity: 1; stroke-width: 0px; fill: rgb(0, 0, 0); fill-opacity: 1;"/><path class="point" transform="translate(175.3,82.08)" d="M3,0A3,3 0 1,1 0,-3A3,3 0 0,1 3,0Z" style="opacity: 1; stroke-width: 0px; fill: rgb(0, 0, 0); fill-opacity: 1;"/></g><g class="text"/></g><g class="trace scatter trace4405de" style="stroke-miterlimit: 2; opacity: 1;"><g class="fills"/><g class="errorbars"/><g class="lines"/><g class="points"><path class="point" transform="translate(175.3,82.08)" d="M6,0A6,6 0 1,1 0,-6A6,6 0 0,1 6,0Z" style="opacity: 1; stroke-width: 0px; fill: rgb(0, 0, 0); fill-opacity: 1;"/></g><g class="text"><g class="textpoint" transform="translate(0,-27.099999999999998)"><text x="175.3" y="82.08" text-anchor="middle" style="font-family: 'Open Sans', verdana, arial, sans-serif; font-size: 12px; fill: rgb(0, 0, 0); fill-opacity: 1; white-space: pre;"><tspan class="line" dy="0em" x="175.3" y="82.08">Peak:2449.5N</tspan><tspan class="line" dy="1.3em" x="175.3" y="82.08">Est. 1RM (kg): 173.3</tspan></text></g></g></g></g></g></g><g class="zerolinelayer-above"/><path class="xlines-above crisp" d="M550.6333333333334,421H896.3666666666667" style="fill: none; stroke-width: 2px; stroke: rgb(0, 0, 0); stroke-opacity: 1;"/><path class="ylines-above crisp" d="M551.6333333333334,100V420" style="fill: none; stroke-width: 2px; stroke: rgb(0, 0, 0); stroke-opacity: 1;"/><g class="overlines-above"/><g class="xaxislayer-above"><g class="x2tick"><text text-anchor="middle" x="0" y="436.4" transform="translate(552.6333333333334,0)" style="font-family: 'Open Sans', verdana, arial, sans-serif; font-size: 12px; fill: rgb(42, 63, 95); fill-opacity: 1; white-space: pre;">0</text></g><g class="x2tick"><text text-anchor="middle" x="0" y="436.4" style="font-family: 'Open Sans', verdana, arial, sans-serif; font-size: 12px; fill: rgb(42, 63, 95); fill-opacity: 1; white-space: pre;" transform="translate(638.5633333333335,0)">25</text></g><g class="x2tick"><text text-anchor="middle" x="0" y="436.4" style="font-family: 'Open Sans', verdana, arial, sans-serif; font-size: 12px; fill: rgb(42, 63, 95); fill-opacity: 1; white-space: pre;" transform="translate(724.5033333333334,0)">50</text></g><g class="x2tick"><text text-anchor="middle" x="0" y="436.4" style="font-family: 'Open Sans', verdana, arial, sans-serif; font-size: 12px; fill: rgb(42, 63, 95); fill-opacity: 1; white-space: pre;" transform="translate(810.4333333333334,0)">75</text></g><g class="x2tick"><text text-anchor="middle" x="0" y="436.4" style="font-family: 'Open Sans', verdana, arial, sans-serif; font-size: 12px; fill: rgb(42, 63, 95); fill-opacity: 1; white-space: pre;" transform="translate(896.3633333333335,0)">100</text></g></g><g class="yaxislayer-above"><g class="y2tick"><text text-anchor="end" x="548.2333333333335" y="4.199999999999999" transform="translate(0,381.2)" style="font-family: 'Open Sans', verdana, arial, sans-serif; font-size: 12px; fill: rgb(42, 63, 95); fill-opacity: 1; white-space: pre;">500</text></g><g class="y2tick"><text text-anchor="end" x="548.2333333333335" y="4.199999999999999" style="font-family: 'Open Sans', verdana, arial, sans-serif; font-size: 12px; fill: rgb(42, 63, 95); fill-opacity: 1; white-space: pre;" transform="translate(0,330.13)">1000</text></g><g class="y2tick"><text text-anchor="end" x="548.2333333333335" y="4.199999999999999" style="font-family: 'Open Sans', verdana, arial, sans-serif; font-size: 12px; fill: rgb(42, 63, 95); fill-opacity: 1; white-space: pre;" transform="translate(0,279.06)">1500</text></g><g class="y2tick"><text text-anchor="end" x="548.2333333333335" y="4.199999999999999" style="font-family: 'Open Sans', verdana, arial, sans-serif; font-size: 12px; fill: rgb(42, 63, 95); fill-opacity: 1; white-space: pre;" transform="translate(0,227.99)">2000</text></g><g class="y2tick"><text text-anchor="end" x="548.2333333333335" y="4.199999999999999" style="font-family: 'Open Sans', verdana, arial, sans-serif; font-size: 12px; fill: rgb(42, 63, 95); fill-opacity: 1; white-space: pre;" transform="translate(0,176.92000000000002)">2500</text></g><g class="y2tick"><text text-anchor="end" x="548.2333333333335" y="4.199999999999999" style="font-family: 'Open Sans', verdana, arial, sans-serif; font-size: 12px; fill: rgb(42, 63, 95); fill-opacity: 1; white-space: pre;" transform="translate(0,125.85)">3000</text></g></g><g class="overaxes-above"/></g><g class="subplot x3y3"><g class="layer-subplot"><g class="shapelayer"/><g class="imagelayer"/></g><g class="minor-gridlayer"><g class="x3"/><g class="y3"/></g><g class="gridlayer"><g class="x3"/><g class="y3"/></g><g class="zerolinelayer"/><g class="layer-between"><g class="shapelayer"/><g class="imagelayer"/></g><path class="xlines-below"/><path class="ylines-below"/><g class="overlines-below"/><g class="xaxislayer-below"/><g class="yaxislayer-below"/><g class="overaxes-below"/><g class="overplot"><g class="x3y3" transform="translate(1025.2666666666669,100)" clip-path="url(#clip7796bcx3y3plot)"><g class="barlayer mlayer"><g class="trace bars" style="opacity: 1;"><g class="points"><g class="point"><path d="M171.87,304V176H219.34V304Z" style="vector-effect: none; opacity: 1; stroke-width: 0.5px; fill: rgb(61, 173, 107); fill-opacity: 1; stroke: rgb(255, 255, 255); stroke-opacity: 1;"/><text class="bartext bartext-outside" text-anchor="middle" data-notex="1" x="0" y="0" style="font-family: 'Open Sans', verdana, arial, sans-serif; font-size: 12px; fill: rgb(42, 63, 95); fill-opacity: 1; white-space: pre;" transform="translate(247.334140625,244.7999997138977)">+13.8%</text></g></g></g><g class="trace bars" style="opacity: 1;"><g class="points"><g class="point"><path d="M171.87,144V16H163.43V144Z" style="vector-effect: none; opacity: 1; stroke-width: 0.5px; fill: rgb(63, 168, 221); fill-opacity: 1; stroke: rgb(255, 255, 255); stroke-opacity: 1;"/><text class="bartext bartext-outside" text-anchor="middle" data-notex="1" x="0" y="0" style="font-family: 'Open Sans', verdana, arial, sans-serif; font-size: 12px; fill: rgb(42, 63, 95); fill-opacity: 1; white-space: pre;" transform="translate(139.24914138793946,84.7999997138977)">+2.5%</text></g></g></g></g></g></g><g class="zerolinelayer-above"/><path class="xlines-above crisp" d="M0,0" style="fill: none;"/><path class="ylines-above crisp" d="M0,0" style="fill: none;"/><g class="overlines-above"/><g class="xaxislayer-above"/><g class="yaxislayer-above"><g class="y3tick"><text text-anchor="end" x="1024.2666666666669" y="4.199999999999999" transform="translate(0,340)translate(0,-7.800000000000001)" style="font-family: 'Open Sans', verdana, arial, sans-serif; font-size: 12px; fill: rgb(42, 63, 95); fill-opacity: 1; white-space: pre;"><tspan class="line" dy="0em" x="1024.2666666666669" y="4.199999999999999">biceps</tspan><tspan class="line" dy="1.3em" x="1024.2666666666669" y="4.199999999999999">femoris</tspan></text></g><g class="y3tick"><text text-anchor="end" x="1024.2666666666669" y="4.199999999999999" transform="translate(0,180)translate(0,-7.800000000000001)" style="font-family: 'Open Sans', verdana, arial, sans-serif; font-size: 12px; fill: rgb(42, 63, 95); fill-opacity: 1; white-space: pre;"><tspan class="line" dy="0em" x="1024.2666666666669" y="4.199999999999999">vastus</tspan><tspan class="line" dy="1.3em" x="1024.2666666666669" y="4.199999999999999">lateralis</tspan></text></g></g><g class="overaxes-above"/></g></g><g class="polarlayer"/><g class="smithlayer"/><g class="ternarylayer"/><g class="geolayer"/><g class="funnelarealayer"/><g class="pielayer"/><g class="iciclelayer"/><g class="treemaplayer"/><g class="sunburstlayer"/><g class="glimages"/><defs id="topdefs-7796bc"><g class="clips"/></defs><g class="layer-above"><g class="imagelayer"/><g class="shapelayer"><g class="shape-group" data-index="0" clip-path="url(#clip7796bcx3)"><path data-index="0" fill-rule="evenodd" d="M1197.1366666666668,420L1197.1366666666668,100" style="opacity: 1; stroke: rgb(0, 0, 0); stroke-opacity: 1; fill: rgb(0, 0, 0); fill-opacity: 0; stroke-width: 2px;"/></g></g></g><g class="infolayer"><g class="cbcoloraxis colorbar" transform="translate(80,100)"><rect class="cbbg" x="1315" y="8" width="93.6240234375" height="304" style="fill: rgb(0, 0, 0); fill-opacity: 0; stroke: rgb(68, 68, 68); stroke-opacity: 1; stroke-width: 0;"/><g class="cbfills" transform="translate(0,77)"><rect class="cbfill gradient_filled" style="fill: url('#g7796bc-cbcoloraxis');" x="1325" y="0" width="30" height="225"/></g><g class="cblines" transform="translate(0,77)"/><g class="cbaxis crisp" transform="translate(0,-100)"><g class="ycbcoloraxistick"><text text-anchor="start" x="1357.9" y="4.199999999999999" transform="translate(0,357)" style="font-family: 'Open Sans', verdana, arial, sans-serif; font-size: 12px; fill: rgb(42, 63, 95); fill-opacity: 1; white-space: pre;">Good</text></g><g class="ycbcoloraxistick"><text text-anchor="start" x="1357.9" y="4.199999999999999" style="font-family: 'Open Sans', verdana, arial, sans-serif; font-size: 12px; fill: rgb(42, 63, 95); fill-opacity: 1; white-space: pre;" transform="translate(0,312)">Normal</text></g><g class="ycbcoloraxistick"><text text-anchor="start" x="1357.9" y="4.199999999999999" style="font-family: 'Open Sans', verdana, arial, sans-serif; font-size: 12px; fill: rgb(42, 63, 95); fill-opacity: 1; white-space: pre;" transform="translate(0,267)">Fair</text></g><g class="ycbcoloraxistick"><text text-anchor="start" x="1357.9" y="4.199999999999999" style="font-family: 'Open Sans', verdana, arial, sans-serif; font-size: 12px; fill: rgb(42, 63, 95); fill-opacity: 1; white-space: pre;" transform="translate(0,222.00000000000003)">Poor</text></g></g><g class="cbtitleunshift" transform="translate(-80,-100)"><g class="cbtitle" transform=""><text class="ycbcoloraxistitle" x="1404.78" y="131.5" text-anchor="start" style="opacity: 1; font-family: 'Open Sans', verdana, arial, sans-serif; font-size: 14px; fill: rgb(42, 63, 95); fill-opacity: 1; white-space: pre;"><tspan class="line" dy="0em" x="1404.78" y="131.5">Muscle</tspan><tspan class="line" dy="1.3em" x="1404.78" y="131.5">Imbalance</tspan><tspan class="line" dy="2.6em" x="1404.78" y="131.5">Levels</tspan></text></g></g><rect class="cboutline" x="1325" y="77" width="30" height="225" style="stroke: rgb(68, 68, 68); stroke-opacity: 1; fill: none; stroke-width: 0;"/></g><g class="g-gtitle"/><g class="g-xtitle"><text class="xtitle" x="251.86666666666667" y="462.5994146347046" text-anchor="middle" style="opacity: 1; font-family: 'Open Sans', verdana, arial, sans-serif; font-size: 14px; fill: rgb(42, 63, 95); fill-opacity: 1; white-space: pre;">Concentric Phase (%)</text></g><g class="g-x2title"><text class="x2title" x="724.5" y="462.5994146347046" text-anchor="middle" style="opacity: 1; font-family: 'Open Sans', verdana, arial, sans-serif; font-size: 14px; fill: rgb(42, 63, 95); fill-opacity: 1; white-space: pre;">Concentric Phase (%)</text></g><g class="g-x3title"><text class="x3title" x="1197.1333333333334" y="445.3" text-anchor="middle" style="opacity: 1; font-family: 'Open Sans', verdana, arial, sans-serif; font-size: 14px; fill: rgb(42, 63, 95); fill-opacity: 1; white-space: pre;"><tspan class="line" dy="0em" x="1197.1333333333334" y="445.3">Left|Right</tspan><tspan class="line" dy="1.3em" x="1197.1333333333334" y="445.3">(%)</tspan></text></g><g class="g-ytitle"><text class="ytitle" transform="rotate(-90,26.1751953125,260)" x="26.1751953125" y="260" text-anchor="middle" style="opacity: 1; font-family: 'Open Sans', verdana, arial, sans-serif; font-size: 14px; fill: rgb(42, 63, 95); fill-opacity: 1; white-space: pre;">Force (N)</text></g><g class="g-y2title"><text class="y2title" transform="rotate(-90,498.8080078125,260)" x="498.8080078125" y="260" text-anchor="middle" style="opacity: 1; font-family: 'Open Sans', verdana, arial, sans-serif; font-size: 14px; fill: rgb(42, 63, 95); fill-opacity: 1; white-space: pre;">Force (N)</text></g><g class="g-y3title"/><g class="annotation" data-index="0" style="opacity: 1;"><g class="annotation-text-g" transform="rotate(0,251.86666666666667,88.5)"><g class="cursor-pointer" transform="translate(235,77)"><rect class="bg" x="0.5" y="0.5" width="33" height="22" style="stroke-width: 1px; stroke: rgb(0, 0, 0); stroke-opacity: 0; fill: rgb(0, 0, 0); fill-opacity: 0;"/><text class="annotation-text" text-anchor="middle" x="17.1875" y="18" style="font-family: 'Open Sans', verdana, arial, sans-serif; font-size: 16px; fill: rgb(42, 63, 95); fill-opacity: 1; white-space: pre;">Left</text></g></g></g><g class="annotation" data-index="1" style="opacity: 1;"><g class="annotation-text-g" transform="rotate(0,724.5,88.5)"><g class="cursor-pointer" transform="translate(702,77)"><rect class="bg" x="0.5" y="0.5" width="45" height="22" style="stroke-width: 1px; stroke: rgb(0, 0, 0); stroke-opacity: 0; fill: rgb(0, 0, 0); fill-opacity: 0;"/><text class="annotation-text" text-anchor="middle" x="22.962890625" y="18" style="font-family: 'Open Sans', verdana, arial, sans-serif; font-size: 16px; fill: rgb(42, 63, 95); fill-opacity: 1; white-space: pre;">Right</text></g></g></g><g class="annotation" data-index="2" style="opacity: 1;"><g class="annotation-text-g" transform="rotate(0,1197.1333333333334,88.5)"><g class="cursor-pointer" transform="translate(1134,77)"><rect class="bg" x="0.5" y="0.5" width="125" height="22" style="stroke-width: 1px; stroke: rgb(0, 0, 0); stroke-opacity: 0; fill: rgb(0, 0, 0); fill-opacity: 0;"/><text class="annotation-text" text-anchor="middle" x="63.2001953125" y="18" style="font-family: 'Open Sans', verdana, arial, sans-serif; font-size: 16px; fill: rgb(42, 63, 95); fill-opacity: 1; white-space: pre;">Muscle Balance</text></g></g></g></g></svg>